# MagicaVoxel @ Ephtracy

# group
o 

# material
mtllib Tower-Green-Top-2.mtl
usemtl palette

# normals
vn -1 0 0
vn 1 0 0
vn 0 0 1
vn 0 0 -1
vn 0 -1 0
vn 0 1 0

# texcoords
vt 0.904297 0.5
vt 0.978516 0.5
vt 0.994141 0.5

# verts
v -0.4 0.1 0.3
v -0.4 0.1 -0.3
v -0.4 0.2 0.4
v -0.4 0.2 0.3
v -0.4 0.2 -0.3
v -0.4 0.2 -0.4
v -0.4 0.4 0.4
v -0.4 0.4 -0.4
v -0.3 0 0.4
v -0.3 0 -0.4
v -0.3 0.1 0.5
v -0.3 0.1 0.4
v -0.3 0.1 0.3
v -0.3 0.1 -0.3
v -0.3 0.1 -0.4
v -0.3 0.1 -0.5
v -0.3 0.2 0.4
v -0.3 0.2 0.3
v -0.3 0.2 -0.3
v -0.3 0.2 -0.4
v -0.3 0.4 0.4
v -0.3 0.4 -0.4
v -0.3 0.5 0.5
v -0.3 0.5 -0.5
v -0.2 0.2 0.6
v -0.2 0.2 0.5
v -0.2 0.2 -0.5
v -0.2 0.2 -0.6
v -0.2 0.4 0.6
v -0.2 0.4 0.5
v -0.2 0.4 -0.5
v -0.2 0.4 -0.6
v -0.2 0.5 0.4
v -0.2 0.5 0.2
v -0.2 0.5 -0.2
v -0.2 0.5 -0.4
v -0.2 0.6 0.4
v -0.2 0.6 0.2
v -0.2 0.6 -0.2
v -0.2 0.6 -0.4
v 0.3 0 0.4
v 0.3 0 -0.4
v 0.3 0.1 0.4
v 0.3 0.1 0.1
v 0.3 0.1 -0.1
v 0.3 0.1 -0.4
v 0.3 0.2 0.6
v 0.3 0.2 0.5
v 0.3 0.2 -0.5
v 0.3 0.2 -0.6
v 0.3 0.4 0.6
v 0.3 0.4 0.5
v 0.3 0.4 -0.5
v 0.3 0.4 -0.6
v 0.3 0.5 0.4
v 0.3 0.5 0.2
v 0.3 0.5 0.1
v 0.3 0.5 -0.1
v 0.3 0.5 -0.2
v 0.3 0.5 -0.4
v 0.3 0.6 0.4
v 0.3 0.6 0.2
v 0.3 0.6 -0.2
v 0.3 0.6 -0.4
v 0.4 0.1 0.5
v 0.4 0.1 0.1
v 0.4 0.1 -0.1
v 0.4 0.1 -0.5
v 0.4 0.2 0.4
v 0.4 0.2 0.2
v 0.4 0.2 -0.2
v 0.4 0.2 -0.4
v 0.4 0.4 0.4
v 0.4 0.4 0.2
v 0.4 0.4 -0.2
v 0.4 0.4 -0.4
v 0.4 0.5 0.5
v 0.4 0.5 0.1
v 0.4 0.5 -0.1
v 0.4 0.5 -0.5
v -0.2 0.2 0.6
v -0.2 0.4 0.6
v 0.3 0.2 0.6
v 0.3 0.4 0.6
v -0.3 0.1 0.5
v -0.3 0.5 0.5
v -0.2 0.1 0.5
v -0.2 0.2 0.5
v -0.2 0.4 0.5
v -0.2 0.5 0.5
v -0.1 0.1 0.5
v -0.1 0.2 0.5
v -0.1 0.4 0.5
v -0.1 0.5 0.5
v 0.1 0.1 0.5
v 0.1 0.2 0.5
v 0.1 0.4 0.5
v 0.1 0.5 0.5
v 0.2 0.1 0.5
v 0.2 0.2 0.5
v 0.2 0.4 0.5
v 0.2 0.5 0.5
v 0.3 0.2 0.5
v 0.3 0.4 0.5
v 0.4 0.1 0.5
v 0.4 0.5 0.5
v -0.4 0.2 0.4
v -0.4 0.4 0.4
v -0.3 0 0.4
v -0.3 0.1 0.4
v -0.3 0.2 0.4
v -0.3 0.4 0.4
v -0.2 0 0.4
v -0.2 0.1 0.4
v -0.2 0.5 0.4
v -0.2 0.6 0.4
v -0.1 0 0.4
v -0.1 0.1 0.4
v -0.1 0.5 0.4
v 0.1 0 0.4
v 0.1 0.1 0.4
v 0.1 0.5 0.4
v 0.2 0 0.4
v 0.2 0.1 0.4
v 0.2 0.5 0.4
v 0.3 0 0.4
v 0.3 0.1 0.4
v 0.3 0.5 0.4
v 0.3 0.6 0.4
v -0.4 0.1 0.3
v -0.4 0.2 0.3
v -0.3 0.1 0.3
v -0.3 0.2 0.3
v 0.3 0.1 -0.1
v 0.3 0.5 -0.1
v 0.4 0.1 -0.1
v 0.4 0.5 -0.1
v -0.2 0.5 -0.2
v -0.2 0.6 -0.2
v -0.1 0.5 -0.2
v 0.1 0.5 -0.2
v 0.2 0.5 -0.2
v 0.3 0.5 -0.2
v 0.3 0.6 -0.2
v -0.2 0.5 0.2
v -0.2 0.6 0.2
v -0.1 0.5 0.2
v 0.1 0.5 0.2
v 0.2 0.5 0.2
v 0.3 0.5 0.2
v 0.3 0.6 0.2
v 0.3 0.1 0.1
v 0.3 0.5 0.1
v 0.4 0.1 0.1
v 0.4 0.5 0.1
v -0.4 0.1 -0.3
v -0.4 0.2 -0.3
v -0.3 0.1 -0.3
v -0.3 0.2 -0.3
v -0.4 0.2 -0.4
v -0.4 0.4 -0.4
v -0.3 0 -0.4
v -0.3 0.1 -0.4
v -0.3 0.2 -0.4
v -0.3 0.4 -0.4
v -0.2 0 -0.4
v -0.2 0.1 -0.4
v -0.2 0.5 -0.4
v -0.2 0.6 -0.4
v -0.1 0 -0.4
v -0.1 0.1 -0.4
v -0.1 0.5 -0.4
v 0.1 0 -0.4
v 0.1 0.1 -0.4
v 0.1 0.5 -0.4
v 0.2 0 -0.4
v 0.2 0.1 -0.4
v 0.2 0.5 -0.4
v 0.3 0 -0.4
v 0.3 0.1 -0.4
v 0.3 0.5 -0.4
v 0.3 0.6 -0.4
v -0.3 0.1 -0.5
v -0.3 0.5 -0.5
v -0.2 0.1 -0.5
v -0.2 0.2 -0.5
v -0.2 0.4 -0.5
v -0.2 0.5 -0.5
v -0.1 0.1 -0.5
v -0.1 0.2 -0.5
v -0.1 0.4 -0.5
v -0.1 0.5 -0.5
v 0.1 0.1 -0.5
v 0.1 0.2 -0.5
v 0.1 0.4 -0.5
v 0.1 0.5 -0.5
v 0.2 0.1 -0.5
v 0.2 0.2 -0.5
v 0.2 0.4 -0.5
v 0.2 0.5 -0.5
v 0.3 0.2 -0.5
v 0.3 0.4 -0.5
v 0.4 0.1 -0.5
v 0.4 0.5 -0.5
v -0.2 0.2 -0.6
v -0.2 0.4 -0.6
v 0.3 0.2 -0.6
v 0.3 0.4 -0.6
v -0.3 0 0.4
v -0.2 0 0.4
v -0.1 0 0.4
v 0.1 0 0.4
v 0.2 0 0.4
v 0.3 0 0.4
v -0.3 0 -0.4
v -0.2 0 -0.4
v -0.1 0 -0.4
v 0.1 0 -0.4
v 0.2 0 -0.4
v 0.3 0 -0.4
v -0.3 0.1 0.5
v -0.2 0.1 0.5
v -0.1 0.1 0.5
v 0.1 0.1 0.5
v 0.2 0.1 0.5
v 0.4 0.1 0.5
v -0.3 0.1 0.4
v -0.2 0.1 0.4
v -0.1 0.1 0.4
v 0.1 0.1 0.4
v 0.2 0.1 0.4
v 0.3 0.1 0.4
v -0.4 0.1 0.3
v -0.3 0.1 0.3
v 0.3 0.1 0.1
v 0.4 0.1 0.1
v 0.3 0.1 -0.1
v 0.4 0.1 -0.1
v -0.4 0.1 -0.3
v -0.3 0.1 -0.3
v -0.3 0.1 -0.4
v -0.2 0.1 -0.4
v -0.1 0.1 -0.4
v 0.1 0.1 -0.4
v 0.2 0.1 -0.4
v 0.3 0.1 -0.4
v -0.3 0.1 -0.5
v -0.2 0.1 -0.5
v -0.1 0.1 -0.5
v 0.1 0.1 -0.5
v 0.2 0.1 -0.5
v 0.4 0.1 -0.5
v -0.2 0.2 0.6
v 0.3 0.2 0.6
v -0.2 0.2 0.5
v -0.1 0.2 0.5
v 0.1 0.2 0.5
v 0.2 0.2 0.5
v 0.3 0.2 0.5
v -0.4 0.2 0.4
v -0.3 0.2 0.4
v -0.4 0.2 0.3
v -0.3 0.2 0.3
v -0.4 0.2 -0.3
v -0.3 0.2 -0.3
v -0.4 0.2 -0.4
v -0.3 0.2 -0.4
v -0.2 0.2 -0.5
v -0.1 0.2 -0.5
v 0.1 0.2 -0.5
v 0.2 0.2 -0.5
v 0.3 0.2 -0.5
v -0.2 0.2 -0.6
v 0.3 0.2 -0.6
v -0.2 0.4 0.6
v 0.3 0.4 0.6
v -0.2 0.4 0.5
v -0.1 0.4 0.5
v 0.1 0.4 0.5
v 0.2 0.4 0.5
v 0.3 0.4 0.5
v -0.4 0.4 0.4
v -0.3 0.4 0.4
v -0.4 0.4 -0.4
v -0.3 0.4 -0.4
v -0.2 0.4 -0.5
v -0.1 0.4 -0.5
v 0.1 0.4 -0.5
v 0.2 0.4 -0.5
v 0.3 0.4 -0.5
v -0.2 0.4 -0.6
v 0.3 0.4 -0.6
v -0.3 0.5 0.5
v -0.2 0.5 0.5
v -0.1 0.5 0.5
v 0.1 0.5 0.5
v 0.2 0.5 0.5
v 0.4 0.5 0.5
v -0.2 0.5 0.4
v -0.1 0.5 0.4
v 0.1 0.5 0.4
v 0.2 0.5 0.4
v 0.3 0.5 0.4
v -0.2 0.5 0.2
v -0.1 0.5 0.2
v 0.1 0.5 0.2
v 0.2 0.5 0.2
v 0.3 0.5 0.2
v 0.3 0.5 0.1
v 0.4 0.5 0.1
v 0.3 0.5 -0.1
v 0.4 0.5 -0.1
v -0.2 0.5 -0.2
v -0.1 0.5 -0.2
v 0.1 0.5 -0.2
v 0.2 0.5 -0.2
v 0.3 0.5 -0.2
v -0.2 0.5 -0.4
v -0.1 0.5 -0.4
v 0.1 0.5 -0.4
v 0.2 0.5 -0.4
v 0.3 0.5 -0.4
v -0.3 0.5 -0.5
v -0.2 0.5 -0.5
v -0.1 0.5 -0.5
v 0.1 0.5 -0.5
v 0.2 0.5 -0.5
v 0.4 0.5 -0.5
v -0.2 0.6 0.4
v 0.3 0.6 0.4
v -0.2 0.6 0.2
v 0.3 0.6 0.2
v -0.2 0.6 -0.2
v 0.3 0.6 -0.2
v -0.2 0.6 -0.4
v 0.3 0.6 -0.4

# faces
f 4/1/1 2/1/1 1/1/1
f 5/1/1 2/1/1 4/1/1
f 7/1/1 4/1/1 3/1/1
f 7/1/1 6/1/1 5/1/1
f 7/1/1 5/1/1 4/1/1
f 8/1/1 6/1/1 7/1/1
f 12/2/1 10/2/1 9/2/1
f 13/2/1 10/2/1 12/2/1
f 14/2/1 10/2/1 13/2/1
f 15/2/1 10/2/1 14/2/1
f 17/2/1 12/2/1 11/2/1
f 17/2/1 13/2/1 12/2/1
f 18/2/1 13/2/1 17/2/1
f 19/2/1 16/2/1 15/2/1
f 19/2/1 15/2/1 14/2/1
f 20/2/1 16/2/1 19/2/1
f 21/2/1 17/2/1 11/2/1
f 22/2/1 16/2/1 20/2/1
f 23/2/1 21/2/1 11/2/1
f 23/2/1 22/2/1 21/2/1
f 24/2/1 16/2/1 22/2/1
f 24/2/1 22/2/1 23/2/1
f 29/1/1 26/1/1 25/1/1
f 30/1/1 26/1/1 29/1/1
f 31/1/1 28/1/1 27/1/1
f 32/1/1 28/1/1 31/1/1
f 37/1/1 34/1/1 33/1/1
f 38/1/1 34/1/1 37/1/1
f 39/1/1 36/1/1 35/1/1
f 40/1/1 36/1/1 39/1/1
f 41/2/2 42/2/2 43/2/2
f 43/2/2 42/2/2 44/2/2
f 44/2/2 42/2/2 45/2/2
f 45/2/2 42/2/2 46/2/2
f 47/1/2 48/1/2 51/1/2
f 51/1/2 48/1/2 52/1/2
f 49/1/2 50/1/2 53/1/2
f 53/1/2 50/1/2 54/1/2
f 44/2/2 45/2/2 57/2/2
f 57/2/2 45/2/2 58/2/2
f 55/1/2 56/1/2 61/1/2
f 61/1/2 56/1/2 62/1/2
f 59/1/2 60/1/2 63/1/2
f 63/1/2 60/1/2 64/1/2
f 65/2/2 66/2/2 69/2/2
f 69/2/2 66/2/2 70/2/2
f 67/2/2 68/2/2 71/2/2
f 71/2/2 68/2/2 72/2/2
f 65/2/2 69/2/2 73/2/2
f 69/3/2 70/3/2 73/3/2
f 70/2/2 66/2/2 74/2/2
f 73/3/2 70/3/2 74/3/2
f 71/3/2 72/3/2 75/3/2
f 67/2/2 71/2/2 75/2/2
f 72/2/2 68/2/2 76/2/2
f 75/3/2 72/3/2 76/3/2
f 65/2/2 73/2/2 77/2/2
f 73/2/2 74/2/2 77/2/2
f 74/2/2 66/2/2 78/2/2
f 77/2/2 74/2/2 78/2/2
f 67/2/2 75/2/2 79/2/2
f 75/2/2 76/2/2 79/2/2
f 76/2/2 68/2/2 80/2/2
f 79/2/2 76/2/2 80/2/2
f 83/1/3 82/1/3 81/1/3
f 84/1/3 82/1/3 83/1/3
f 87/2/3 86/2/3 85/2/3
f 88/2/3 86/2/3 87/2/3
f 89/2/3 86/2/3 88/2/3
f 90/2/3 86/2/3 89/2/3
f 91/3/3 88/3/3 87/3/3
f 92/3/3 88/3/3 91/3/3
f 93/3/3 90/3/3 89/3/3
f 94/3/3 90/3/3 93/3/3
f 95/2/3 92/2/3 91/2/3
f 96/2/3 92/2/3 95/2/3
f 97/2/3 94/2/3 93/2/3
f 98/2/3 94/2/3 97/2/3
f 99/3/3 96/3/3 95/3/3
f 100/3/3 96/3/3 99/3/3
f 101/3/3 98/3/3 97/3/3
f 102/3/3 98/3/3 101/3/3
f 103/2/3 100/2/3 99/2/3
f 104/2/3 102/2/3 101/2/3
f 105/2/3 103/2/3 99/2/3
f 105/2/3 104/2/3 103/2/3
f 106/2/3 102/2/3 104/2/3
f 106/2/3 104/2/3 105/2/3
f 111/1/3 108/1/3 107/1/3
f 112/1/3 108/1/3 111/1/3
f 113/2/3 110/2/3 109/2/3
f 114/2/3 110/2/3 113/2/3
f 117/3/3 114/3/3 113/3/3
f 118/3/3 114/3/3 117/3/3
f 119/1/3 116/1/3 115/1/3
f 120/2/3 118/2/3 117/2/3
f 121/2/3 118/2/3 120/2/3
f 122/1/3 116/1/3 119/1/3
f 123/3/3 121/3/3 120/3/3
f 124/3/3 121/3/3 123/3/3
f 125/1/3 116/1/3 122/1/3
f 126/2/3 124/2/3 123/2/3
f 127/2/3 124/2/3 126/2/3
f 128/1/3 116/1/3 125/1/3
f 129/1/3 116/1/3 128/1/3
f 132/1/3 131/1/3 130/1/3
f 133/1/3 131/1/3 132/1/3
f 136/2/3 135/2/3 134/2/3
f 137/2/3 135/2/3 136/2/3
f 140/1/3 139/1/3 138/1/3
f 141/1/3 139/1/3 140/1/3
f 142/1/3 139/1/3 141/1/3
f 143/1/3 139/1/3 142/1/3
f 144/1/3 139/1/3 143/1/3
f 145/1/4 146/1/4 147/1/4
f 147/1/4 146/1/4 148/1/4
f 148/1/4 146/1/4 149/1/4
f 149/1/4 146/1/4 150/1/4
f 150/1/4 146/1/4 151/1/4
f 152/2/4 153/2/4 154/2/4
f 154/2/4 153/2/4 155/2/4
f 156/1/4 157/1/4 158/1/4
f 158/1/4 157/1/4 159/1/4
f 160/1/4 161/1/4 164/1/4
f 164/1/4 161/1/4 165/1/4
f 162/2/4 163/2/4 166/2/4
f 166/2/4 163/2/4 167/2/4
f 166/3/4 167/3/4 170/3/4
f 170/3/4 167/3/4 171/3/4
f 168/1/4 169/1/4 172/1/4
f 170/2/4 171/2/4 173/2/4
f 173/2/4 171/2/4 174/2/4
f 172/1/4 169/1/4 175/1/4
f 173/3/4 174/3/4 176/3/4
f 176/3/4 174/3/4 177/3/4
f 175/1/4 169/1/4 178/1/4
f 176/2/4 177/2/4 179/2/4
f 179/2/4 177/2/4 180/2/4
f 178/1/4 169/1/4 181/1/4
f 181/1/4 169/1/4 182/1/4
f 183/2/4 184/2/4 185/2/4
f 185/2/4 184/2/4 186/2/4
f 186/2/4 184/2/4 187/2/4
f 187/2/4 184/2/4 188/2/4
f 185/3/4 186/3/4 189/3/4
f 189/3/4 186/3/4 190/3/4
f 187/3/4 188/3/4 191/3/4
f 191/3/4 188/3/4 192/3/4
f 189/2/4 190/2/4 193/2/4
f 193/2/4 190/2/4 194/2/4
f 191/2/4 192/2/4 195/2/4
f 195/2/4 192/2/4 196/2/4
f 193/3/4 194/3/4 197/3/4
f 197/3/4 194/3/4 198/3/4
f 195/3/4 196/3/4 199/3/4
f 199/3/4 196/3/4 200/3/4
f 197/2/4 198/2/4 201/2/4
f 199/2/4 200/2/4 202/2/4
f 197/2/4 201/2/4 203/2/4
f 201/2/4 202/2/4 203/2/4
f 202/2/4 200/2/4 204/2/4
f 203/2/4 202/2/4 204/2/4
f 205/1/4 206/1/4 207/1/4
f 207/1/4 206/1/4 208/1/4
f 215/2/5 210/2/5 209/2/5
f 216/3/5 211/3/5 210/3/5
f 216/2/5 210/2/5 215/2/5
f 217/2/5 212/2/5 211/2/5
f 217/3/5 211/3/5 216/3/5
f 218/3/5 213/3/5 212/3/5
f 218/2/5 212/2/5 217/2/5
f 219/2/5 214/2/5 213/2/5
f 219/3/5 213/3/5 218/3/5
f 220/2/5 214/2/5 219/2/5
f 227/2/5 222/2/5 221/2/5
f 228/3/5 223/3/5 222/3/5
f 228/2/5 222/2/5 227/2/5
f 229/2/5 224/2/5 223/2/5
f 229/3/5 223/3/5 228/3/5
f 230/3/5 225/3/5 224/3/5
f 230/2/5 224/2/5 229/2/5
f 231/2/5 226/2/5 225/2/5
f 231/3/5 225/3/5 230/3/5
f 232/2/5 226/2/5 231/2/5
f 235/2/5 226/2/5 232/2/5
f 236/2/5 226/2/5 235/2/5
f 239/1/5 234/1/5 233/1/5
f 240/1/5 234/1/5 239/1/5
f 246/2/5 238/2/5 237/2/5
f 247/2/5 242/2/5 241/2/5
f 248/3/5 243/3/5 242/3/5
f 248/2/5 242/2/5 247/2/5
f 249/2/5 244/2/5 243/2/5
f 249/3/5 243/3/5 248/3/5
f 250/3/5 245/3/5 244/3/5
f 250/2/5 244/2/5 249/2/5
f 251/2/5 246/2/5 245/2/5
f 251/3/5 245/3/5 250/3/5
f 252/2/5 238/2/5 246/2/5
f 252/2/5 246/2/5 251/2/5
f 255/1/5 254/1/5 253/1/5
f 256/1/5 254/1/5 255/1/5
f 257/1/5 254/1/5 256/1/5
f 258/1/5 254/1/5 257/1/5
f 259/1/5 254/1/5 258/1/5
f 262/1/5 261/1/5 260/1/5
f 263/1/5 261/1/5 262/1/5
f 266/1/5 265/1/5 264/1/5
f 267/1/5 265/1/5 266/1/5
f 273/1/5 269/1/5 268/1/5
f 273/1/5 272/1/5 271/1/5
f 273/1/5 271/1/5 270/1/5
f 273/1/5 270/1/5 269/1/5
f 274/1/5 272/1/5 273/1/5
f 275/1/6 276/1/6 277/1/6
f 277/1/6 276/1/6 278/1/6
f 278/1/6 276/1/6 279/1/6
f 279/1/6 276/1/6 280/1/6
f 280/1/6 276/1/6 281/1/6
f 282/1/6 283/1/6 284/1/6
f 284/1/6 283/1/6 285/1/6
f 286/1/6 287/1/6 291/1/6
f 289/1/6 290/1/6 291/1/6
f 288/1/6 289/1/6 291/1/6
f 287/1/6 288/1/6 291/1/6
f 291/1/6 290/1/6 292/1/6
f 293/2/6 294/2/6 299/2/6
f 294/3/6 295/3/6 299/3/6
f 295/2/6 296/2/6 300/2/6
f 299/3/6 295/3/6 300/3/6
f 296/3/6 297/3/6 301/3/6
f 300/2/6 296/2/6 301/2/6
f 297/2/6 298/2/6 302/2/6
f 301/3/6 297/3/6 302/3/6
f 302/2/6 298/2/6 303/2/6
f 293/2/6 299/2/6 304/2/6
f 303/2/6 298/2/6 308/2/6
f 308/2/6 298/2/6 309/2/6
f 307/2/6 308/2/6 309/2/6
f 309/2/6 298/2/6 310/2/6
f 307/2/6 309/2/6 311/2/6
f 293/2/6 304/2/6 313/2/6
f 304/3/6 305/3/6 313/3/6
f 305/2/6 306/2/6 314/2/6
f 313/3/6 305/3/6 314/3/6
f 306/3/6 307/3/6 315/3/6
f 314/2/6 306/2/6 315/2/6
f 311/2/6 312/2/6 316/2/6
f 315/3/6 307/3/6 316/3/6
f 307/2/6 311/2/6 316/2/6
f 316/2/6 312/2/6 317/2/6
f 293/2/6 313/2/6 318/2/6
f 317/2/6 312/2/6 322/2/6
f 293/2/6 318/2/6 323/2/6
f 318/3/6 319/3/6 324/3/6
f 323/2/6 318/2/6 324/2/6
f 319/2/6 320/2/6 325/2/6
f 324/3/6 319/3/6 325/3/6
f 320/3/6 321/3/6 326/3/6
f 325/2/6 320/2/6 326/2/6
f 321/2/6 322/2/6 327/2/6
f 326/3/6 321/3/6 327/3/6
f 322/2/6 312/2/6 328/2/6
f 327/2/6 322/2/6 328/2/6
f 329/1/6 330/1/6 331/1/6
f 331/1/6 330/1/6 332/1/6
f 333/1/6 334/1/6 335/1/6
f 335/1/6 334/1/6 336/1/6
